# xmcd CD database file
#
# Track frame offsets:
#	150
#	12902
#	27720
#	43802
#	61034
#	76218
#	91379
#	107346
#	123129
#	136541
#	156640
#	173089
#	185311
#
# Disc length: 2647 seconds
#
# Revision: 0
# Processed by: cddbd v1.5.1PL2 Copyright (c) Steve Scherf et al.
# Submitted via: CDex 1.51
#
DISCID=9a0a550d
DTITLE=Trick Pony - Trick Pony
DYEAR=2001
DGENRE=Country
TTITLE0=Pour Me
TTITLE1=Party of One
TTITLE2=Big River (With Johnny Cash and Waylon Jennings)
TTITLE3=Every Other Memory
TTITLE4=More Like Me
TTITLE5=Just What I Do
TTITLE6=Stay in This Moment
TTITLE7=On A Night Like This
TTITLE8=One In A Row
TTITLE9=Now Would Be The Time
TTITLE10=Can't Say That On The Radio
TTITLE11=Spent
TTITLE12=Not Hidden Track
EXTD=YEAR: 2001
EXTT0=
EXTT1=
EXTT2=
EXTT3=
EXTT4=
EXTT5=
EXTT6=
EXTT7=
EXTT8=
EXTT9=
EXTT10=
EXTT11=
EXTT12=
PLAYORDER=
